<svg xmlns="http://www.w3.org/2000/svg" data-name="Layer 1" viewBox="0 0 24 24"><path d="m22.35 9.2-1.26-2A1.52 1.52 0 0 1 21 6.14a.45.45 0 0 0-.16-.49c-.11-.12-2-1.92-2.71-2.63-.15-.14-.24-.16-.37-.06a16 16 0 0 0-1.36 1.38c-.18.22-.06.37-.06.37l1.19 1.41.34.33L12 12.17 6.13 6.46l.34-.34 1.19-1.41s.12-.15-.06-.36A15 15 0 0 0 6.21 3c-.13-.1-.22-.07-.37.07L3.13 5.65a.47.47 0 0 0-.16.5 1.5 1.5 0 0 1-.06 1.07l-1.26 2c-.16.24-.2.45-.08.57s.22.14.55-.09C2.27 9.58 4 8.43 4.53 8c.33-.27.57-.51.57-.51l5.71 5.86-7.48 7.27c-.23.24 0 .61.4 1s.76.64 1 .4L12 14.55 19.27 22c.24.24.61 0 1-.4s.63-.75.39-1l-7.48-7.29 5.72-5.84a7 7 0 0 0 .57.5c.54.45 2.26 1.61 2.41 1.71.33.23.49.16.55.09s.08-.33-.08-.57" style="fill:#8f2138"/></svg>